<svg width="219" height="107" viewBox="0 0 219 107" fill="none" xmlns="http://www.w3.org/2000/svg">
<path d="M19.6406 19.3281C22.0469 19.3281 24.5859 19.4141 27.2578 19.5859C29.9453 19.7578 32.7656 20.0938 35.7188 20.5938V26.5469C34.4062 26.1719 33.0781 25.8672 31.7344 25.6328C30.3906 25.3828 29.0391 25.1875 27.6797 25.0469C26.3359 24.9062 24.9922 24.8047 23.6484 24.7422C22.3047 24.6797 20.9688 24.6406 19.6406 24.625C19 24.625 18.2891 24.6406 17.5078 24.6719C16.7422 24.6875 15.9141 24.7188 15.0234 24.7656C14.1484 24.8125 13.2344 24.8828 12.2812 24.9766C11.3281 25.0703 10.3594 25.1875 9.375 25.3281V33.8594H29.8594V39.625H9.375V55H3.60938V20.5938C6.53125 20.0938 9.33594 19.7578 12.0234 19.5859C14.7266 19.4141 17.2656 19.3281 19.6406 19.3281ZM46.9688 55H41.0156V28.2812H46.9688V55ZM44.0156 19C45.1719 19 46.0859 19.1953 46.7578 19.5859C47.4297 19.9609 47.7656 20.5625 47.7656 21.3906V22.5625C47.7656 23.3125 47.4297 23.8516 46.7578 24.1797C46.0859 24.5078 45.1719 24.6719 44.0156 24.6719C42.9062 24.6719 42.0078 24.5078 41.3203 24.1797C40.6484 23.8516 40.3125 23.3125 40.3125 22.5625V21.3906C40.3125 20.5625 40.6484 19.9609 41.3203 19.5859C42.0078 19.1953 42.9062 19 44.0156 19ZM56.7188 35.6406C56.6562 35.1406 56.5078 34.7188 56.2734 34.375C56.0547 34.0312 55.8125 33.75 55.5469 33.5312C55.25 33.2656 54.9219 33.0469 54.5625 32.875L57.1875 28.2812C57.7656 28.4844 58.3438 28.7578 58.9219 29.1016C59.4062 29.3984 59.9141 29.7812 60.4453 30.25C60.9922 30.7031 61.4688 31.2656 61.875 31.9375C62.6562 31.4375 63.4531 30.9688 64.2656 30.5312C65.0938 30.0781 65.9531 29.6875 66.8438 29.3594C67.75 29.0312 68.6953 28.7734 69.6797 28.5859C70.6797 28.3828 71.75 28.2812 72.8906 28.2812C75.2969 28.2812 77.3594 28.4844 79.0781 28.8906C80.8125 29.2812 82.2266 29.875 83.3203 30.6719C84.4297 31.4531 85.2422 32.4297 85.7578 33.6016C86.2734 34.7734 86.5312 36.1406 86.5312 37.7031V55H80.3906V39.1562C80.3906 38.2812 80.2734 37.5312 80.0391 36.9062C79.8047 36.2656 79.4844 35.7266 79.0781 35.2891C78.6875 34.8359 78.2266 34.4688 77.6953 34.1875C77.1641 33.9062 76.6094 33.6953 76.0312 33.5547C75.4688 33.3984 74.8906 33.2969 74.2969 33.25C73.7031 33.1875 73.1406 33.1562 72.6094 33.1562C71.6094 33.1562 70.6562 33.2266 69.75 33.3672C68.8438 33.5078 67.9844 33.7031 67.1719 33.9531C66.3594 34.1875 65.5938 34.4688 64.875 34.7969C64.1562 35.125 63.4844 35.4688 62.8594 35.8281V55H56.7188V35.6406ZM108.516 28.2812C109.891 28.2812 111.328 28.4375 112.828 28.75C114.344 29.0625 115.812 29.4688 117.234 29.9688V19.3281H123.375V53.1719C122.547 53.4219 121.555 53.6562 120.398 53.875C119.258 54.0938 118.031 54.2891 116.719 54.4609C115.406 54.6172 114.039 54.75 112.617 54.8594C111.211 54.9531 109.844 55 108.516 55C106.109 55 103.961 54.8359 102.07 54.5078C100.18 54.1641 98.5781 53.6406 97.2656 52.9375C95.9531 52.2344 94.9531 51.3438 94.2656 50.2656C93.5781 49.1875 93.2344 47.9062 93.2344 46.4219V36.8594C93.2344 35.375 93.5781 34.0938 94.2656 33.0156C94.9531 31.9375 95.9531 31.0469 97.2656 30.3438C98.5781 29.6406 100.18 29.125 102.07 28.7969C103.961 28.4531 106.109 28.2812 108.516 28.2812ZM110.203 50.6406C110.828 50.6406 111.461 50.6094 112.102 50.5469C112.758 50.4844 113.391 50.3984 114 50.2891C114.625 50.1797 115.211 50.0547 115.758 49.9141C116.32 49.7734 116.812 49.625 117.234 49.4688V34.75C116.156 34.2344 115.047 33.8125 113.906 33.4844C112.781 33.1406 111.547 32.9688 110.203 32.9688C109.234 32.9688 108.289 32.9922 107.367 33.0391C106.461 33.0703 105.609 33.1562 104.812 33.2969C104.016 33.4219 103.281 33.6094 102.609 33.8594C101.938 34.0938 101.359 34.4141 100.875 34.8203C100.406 35.2266 100.039 35.7266 99.7734 36.3203C99.5078 36.9141 99.375 37.625 99.375 38.4531V45.3438C99.375 46.6094 99.6641 47.6016 100.242 48.3203C100.836 49.0234 101.625 49.5469 102.609 49.8906C103.594 50.2344 104.742 50.4453 106.055 50.5234C107.367 50.6016 108.75 50.6406 110.203 50.6406Z" fill="white"/>
<path d="M19.5469 65.6719C21.9062 65.6719 24.1406 65.8828 26.25 66.3047C28.3594 66.7109 30.1953 67.2891 31.7578 68.0391C33.3359 68.7891 34.5859 69.6875 35.5078 70.7344C36.4297 71.7656 36.8906 72.9062 36.8906 74.1562V78.2812H30.7031V75.9844C30.7031 75.3125 30.4453 74.6719 29.9297 74.0625C29.4141 73.4375 28.6719 72.8984 27.7031 72.4453C26.75 71.9766 25.5859 71.6094 24.2109 71.3438C22.8359 71.0625 21.2812 70.9219 19.5469 70.9219C17.875 70.9219 16.3516 71.0547 14.9766 71.3203C13.6016 71.5703 12.4219 71.9219 11.4375 72.375C10.4531 72.8281 9.6875 73.3672 9.14062 73.9922C8.60938 74.6016 8.34375 75.2656 8.34375 75.9844V92.5312C8.34375 93.2188 8.60938 93.8672 9.14062 94.4766C9.6875 95.0859 10.4531 95.6172 11.4375 96.0703C12.4219 96.5078 13.6016 96.8594 14.9766 97.125C16.3516 97.375 17.875 97.5 19.5469 97.5C21.2812 97.5 22.8359 97.3672 24.2109 97.1016C25.5859 96.8203 26.75 96.4531 27.7031 96C28.6719 95.5469 29.4141 95.0234 29.9297 94.4297C30.4453 93.8203 30.7031 93.1875 30.7031 92.5312V90.1875H36.8906V94.3125C36.8906 95.1406 36.6797 95.9297 36.2578 96.6797C35.8359 97.4141 35.2422 98.0938 34.4766 98.7188C33.7266 99.3438 32.8203 99.9062 31.7578 100.406C30.7109 100.891 29.5391 101.312 28.2422 101.672C26.9609 102.016 25.5859 102.281 24.1172 102.469C22.6484 102.656 21.125 102.75 19.5469 102.75C17.9688 102.75 16.4453 102.656 14.9766 102.469C13.5078 102.281 12.125 102.016 10.8281 101.672C9.54688 101.312 8.375 100.891 7.3125 100.406C6.26562 99.9062 5.35938 99.3438 4.59375 98.7188C3.84375 98.0938 3.25781 97.4141 2.83594 96.6797C2.41406 95.9297 2.20312 95.1406 2.20312 94.3125V74.1562C2.20312 73.3281 2.41406 72.5391 2.83594 71.7891C3.25781 71.0391 3.84375 70.3516 4.59375 69.7266C5.35938 69.1016 6.26562 68.5391 7.3125 68.0391C8.375 67.5391 9.54688 67.1172 10.8281 66.7734C12.125 66.4141 13.5078 66.1406 14.9766 65.9531C16.4453 65.7656 17.9688 65.6719 19.5469 65.6719ZM59.7656 75.2812C62.1719 75.2812 64.2344 75.4844 65.9531 75.8906C67.6719 76.2812 69.0781 76.875 70.1719 77.6719C71.2812 78.4531 72.0859 79.4297 72.5859 80.6016C73.1016 81.7734 73.3594 83.1406 73.3594 84.7031V102H67.2188V86.1562C67.2188 85.2812 67.1016 84.5312 66.8672 83.9062C66.6328 83.2656 66.3125 82.7266 65.9062 82.2891C65.5156 81.8359 65.0547 81.4688 64.5234 81.1875C63.9922 80.9062 63.4375 80.6953 62.8594 80.5547C62.2969 80.3984 61.7188 80.2969 61.125 80.25C60.5312 80.1875 59.9688 80.1562 59.4375 80.1562C58.4375 80.1562 57.4844 80.2266 56.5781 80.3672C55.6719 80.5078 54.8125 80.7031 54 80.9531C53.1875 81.1875 52.4219 81.4688 51.7031 81.7969C50.9844 82.125 50.3125 82.4688 49.6875 82.8281V102H43.5469V66.3281H49.6875V78.375C50.4062 77.9375 51.1406 77.5312 51.8906 77.1562C52.6406 76.7812 53.4219 76.4531 54.2344 76.1719C55.0625 75.8906 55.9297 75.6719 56.8359 75.5156C57.7578 75.3594 58.7344 75.2812 59.7656 75.2812ZM86.1094 93.5156C86.1094 94.2344 86.3672 94.8359 86.8828 95.3203C87.4141 95.8047 88.1172 96.2031 88.9922 96.5156C89.8828 96.8125 90.9062 97.0312 92.0625 97.1719C93.2188 97.2969 94.4219 97.3594 95.6719 97.3594C96.9844 97.3594 98.2188 97.2891 99.375 97.1484C100.531 96.9922 101.539 96.7656 102.398 96.4688C103.258 96.1562 103.938 95.7578 104.438 95.2734C104.938 94.7891 105.188 94.2031 105.188 93.5156V75.2812L111.422 75.75V95.0156C111.422 95.8594 111.211 96.6328 110.789 97.3359C110.383 98.0391 109.812 98.6719 109.078 99.2344C108.344 99.7812 107.477 100.258 106.477 100.664C105.477 101.07 104.391 101.406 103.219 101.672C102.062 101.938 100.836 102.133 99.5391 102.258C98.2578 102.398 96.9688 102.469 95.6719 102.469C94.3594 102.469 93.0625 102.398 91.7812 102.258C90.5 102.133 89.2734 101.938 88.1016 101.672C86.9453 101.406 85.8672 101.07 84.8672 100.664C83.8672 100.258 83 99.7812 82.2656 99.2344C81.5312 98.6719 80.9531 98.0469 80.5312 97.3594C80.125 96.6562 79.9219 95.875 79.9219 95.0156V75.75L86.1094 75.2812V93.5156ZM139.5 75.2812C139.5 76.9062 139.445 78.6016 139.336 80.3672C139.227 82.1172 139.016 83.9219 138.703 85.7812H133.031C133.172 85.25 133.305 84.6719 133.43 84.0469C133.523 83.5156 133.609 82.8984 133.688 82.1953C133.781 81.4766 133.828 80.7188 133.828 79.9219C132.453 79.9531 131.312 80.0859 130.406 80.3203C129.516 80.5391 128.773 80.8047 128.18 81.1172C127.586 81.4141 127.102 81.7188 126.727 82.0312C126.352 82.3438 126.016 82.5938 125.719 82.7812V102H119.719V82.6406C119.656 82.1406 119.508 81.7188 119.273 81.375C119.055 81.0312 118.82 80.75 118.57 80.5312C118.289 80.2656 117.969 80.0469 117.609 79.875L120.094 75.2812C120.672 75.4844 121.242 75.7578 121.805 76.1016C122.289 76.3984 122.797 76.7812 123.328 77.25C123.875 77.7031 124.359 78.2656 124.781 78.9375C125.578 78.3906 126.312 77.9297 126.984 77.5547C127.656 77.1641 128.305 76.8359 128.93 76.5703C129.57 76.3047 130.227 76.1016 130.898 75.9609C131.586 75.8047 132.336 75.6797 133.148 75.5859C133.977 75.4922 134.898 75.4297 135.914 75.3984C136.945 75.3516 138.141 75.3125 139.5 75.2812ZM161.016 74.8594C162.312 74.8594 163.617 74.9219 164.93 75.0469C166.242 75.1719 167.5 75.375 168.703 75.6562C169.906 75.9375 171.031 76.2891 172.078 76.7109C173.125 77.1328 174.031 77.6406 174.797 78.2344C175.578 78.8281 176.188 79.5156 176.625 80.2969C177.062 81.0625 177.281 81.9219 177.281 82.875L171.281 83.7656C171.281 83.0938 170.992 82.4922 170.414 81.9609C169.836 81.4141 169.07 80.9609 168.117 80.6016C167.164 80.2266 166.07 79.9453 164.836 79.7578C163.602 79.5547 162.328 79.4531 161.016 79.4531C159.766 79.4531 158.531 79.5469 157.312 79.7344C156.094 79.9062 155 80.1719 154.031 80.5312C153.078 80.8906 152.297 81.3438 151.688 81.8906C151.094 82.4219 150.797 83.0469 150.797 83.7656V93.5156C150.797 94.2344 151.094 94.8594 151.688 95.3906C152.297 95.9062 153.078 96.3438 154.031 96.7031C155 97.0469 156.094 97.3047 157.312 97.4766C158.531 97.6484 159.766 97.7344 161.016 97.7344C162.328 97.7344 163.602 97.6406 164.836 97.4531C166.07 97.2656 167.164 97 168.117 96.6562C169.07 96.2969 169.836 95.8594 170.414 95.3438C170.992 94.8125 171.281 94.2031 171.281 93.5156L177.281 95.0156C177.281 95.8594 177.062 96.6328 176.625 97.3359C176.188 98.0391 175.578 98.6719 174.797 99.2344C174.031 99.7812 173.125 100.258 172.078 100.664C171.031 101.07 169.906 101.406 168.703 101.672C167.5 101.938 166.242 102.133 164.93 102.258C163.617 102.398 162.312 102.469 161.016 102.469C159.719 102.469 158.414 102.398 157.102 102.258C155.805 102.133 154.555 101.938 153.352 101.672C152.148 101.406 151.023 101.07 149.977 100.664C148.945 100.258 148.039 99.7812 147.258 99.2344C146.492 98.6719 145.891 98.0469 145.453 97.3594C145.016 96.6562 144.797 95.875 144.797 95.0156V82.875C144.797 81.9219 145.016 81.0625 145.453 80.2969C145.891 79.5156 146.492 78.8281 147.258 78.2344C148.039 77.6406 148.945 77.1328 149.977 76.7109C151.023 76.2891 152.148 75.9375 153.352 75.6562C154.555 75.375 155.805 75.1719 157.102 75.0469C158.414 74.9219 159.719 74.8594 161.016 74.8594ZM199.031 75.2812C199.828 75.2812 200.789 75.3203 201.914 75.3984C203.039 75.4766 204.203 75.6172 205.406 75.8203C206.625 76.0078 207.828 76.2812 209.016 76.6406C210.203 76.9844 211.266 77.4297 212.203 77.9766C213.156 78.5234 213.922 79.1875 214.5 79.9688C215.094 80.7344 215.391 81.6406 215.391 82.6875V90.6094H188.531V96.6094C190.422 96.875 192.242 97.0625 193.992 97.1719C195.742 97.2656 197.422 97.3125 199.031 97.3125C201.484 97.3125 203.703 97.2188 205.688 97.0312C207.688 96.8438 209.414 96.6328 210.867 96.3984C212.539 96.1328 214.047 95.8281 215.391 95.4844V100.688C212.422 101.156 209.555 101.492 206.789 101.695C204.039 101.898 201.453 102 199.031 102C196.594 102 194.383 101.938 192.398 101.812C190.414 101.672 188.711 101.516 187.289 101.344C185.633 101.156 184.141 100.938 182.812 100.688V82.6875C182.812 81.6406 183.07 80.7344 183.586 79.9688C184.102 79.1875 184.789 78.5234 185.648 77.9766C186.508 77.4297 187.492 76.9844 188.602 76.6406C189.727 76.2812 190.891 76.0078 192.094 75.8203C193.297 75.6172 194.492 75.4766 195.68 75.3984C196.883 75.3203 198 75.2812 199.031 75.2812ZM188.531 86.8594H209.578V84.1406C209.578 83.5 209.422 82.9531 209.109 82.5C208.797 82.0312 208.375 81.6406 207.844 81.3281C207.328 81.0156 206.719 80.7656 206.016 80.5781C205.328 80.375 204.609 80.2266 203.859 80.1328C203.109 80.0234 202.352 79.9531 201.586 79.9219C200.836 79.8906 200.125 79.875 199.453 79.875C198.75 79.875 197.992 79.8906 197.18 79.9219C196.383 79.9531 195.578 80.0234 194.766 80.1328C193.953 80.2422 193.172 80.3984 192.422 80.6016C191.672 80.7891 191.008 81.0469 190.43 81.375C189.852 81.6875 189.391 82.0781 189.047 82.5469C188.703 83 188.531 83.5469 188.531 84.1875V86.8594Z" fill="white"/>
<path d="M197.17 46.8821L185.291 38.4521C184.755 38.0716 184.028 37.8602 183.266 37.8602H181.324C184.612 34.8751 186.566 31.1214 186.566 27.037C186.566 17.3217 175.473 9.44974 161.784 9.44974C148.094 9.44974 137 17.3217 137 27.037C137 36.7524 148.093 44.6243 161.784 44.6243C167.538 44.6243 172.829 43.2375 177.035 40.9036V42.2819C177.035 42.8231 177.332 43.339 177.869 43.7195L189.748 52.1495C190.868 52.9444 192.679 52.9444 193.787 52.1495L197.159 49.7564C198.278 48.9615 198.278 47.677 197.17 46.8821ZM161.784 39.2123C152.307 39.2123 144.627 33.7716 144.627 27.037C144.627 20.3118 152.294 14.8617 161.784 14.8617C171.26 14.8617 178.94 20.3025 178.94 27.037C178.94 33.7623 171.273 39.2123 161.784 39.2123ZM161.786 18.9207C156.927 18.9207 152.989 21.7155 152.989 25.164C152.989 27.9511 158.738 33.0325 160.941 34.8768C161.045 34.9646 161.174 35.0351 161.32 35.0836C161.466 35.132 161.625 35.1571 161.786 35.1571C161.947 35.1571 162.106 35.132 162.252 35.0836C162.398 35.0351 162.527 34.9646 162.631 34.8768C164.833 33.0325 170.583 27.952 170.583 25.164C170.583 21.7155 166.644 18.9207 161.786 18.9207ZM161.786 27.0387C160.206 27.0387 158.927 26.1297 158.927 25.0092C158.927 23.8879 160.207 22.9797 161.786 22.9797C163.364 22.9797 164.645 23.8879 164.645 25.0092C164.645 26.1297 163.364 27.0387 161.786 27.0387Z" fill="white"/>
</svg>
